<svg width="31" height="33" viewBox="0 0 31 33" fill="none" xmlns="http://www.w3.org/2000/svg">
<path d="M14.906 16.6029C14.6517 16.6029 14.4999 16.6135 14.2632 16.497C12.7799 15.7694 11.3213 15.0619 9.88749 14.3744C9.83906 14.3512 9.78553 14.3405 9.73188 14.3435C9.67824 14.3466 9.62623 14.3631 9.58073 14.3917C9.53522 14.4203 9.49771 14.4599 9.47168 14.5069C9.44565 14.5539 9.43197 14.6068 9.4319 14.6605V28.6177C9.43169 28.7393 9.40488 28.8593 9.35334 28.9695C9.30181 29.0796 9.22681 29.1771 9.13359 29.2552C9.04038 29.3333 8.93121 29.39 8.81375 29.4214C8.69628 29.4528 8.57337 29.4582 8.45363 29.437L8.23466 29.3982C7.47182 29.2616 7.0904 28.806 7.0904 28.0314V13.1631C7.09056 13.1153 7.07747 13.0683 7.05257 13.0272C7.02767 12.9862 6.99189 12.9525 6.94913 12.93L1.21722 10.0693C1.08558 10.0037 0.974857 9.90279 0.897495 9.77801C0.820133 9.65323 0.779201 9.50951 0.779297 9.36299V7.85496C0.779297 7.71134 0.844044 7.60892 0.973539 7.54771C6.40996 4.88718 10.6032 2.80231 13.5534 1.29311C14.215 0.954069 14.8259 0.695079 15.3863 0.516141C15.477 0.488817 15.5741 0.496383 15.6582 0.537331L29.8344 7.51945C29.9 7.55129 29.9554 7.60097 29.9941 7.66281C30.0328 7.72464 30.0534 7.79613 30.0534 7.86909V25.0789C30.0534 25.345 29.9619 25.603 29.7942 25.81C29.6264 26.017 29.3925 26.1604 29.1316 26.2161L28.7537 26.2974C28.6114 26.328 28.4641 26.3264 28.3226 26.2929C28.1811 26.2593 28.0489 26.1946 27.9358 26.1035C27.8226 26.0124 27.7314 25.8972 27.6689 25.7664C27.6063 25.6355 27.5739 25.4923 27.5741 25.3474L27.5671 21.3071C27.5673 21.2529 27.5536 21.1995 27.5274 21.1521C27.5012 21.1046 27.4633 21.0647 27.4173 21.036C27.3713 21.0073 27.3187 20.9909 27.2646 20.9883C27.2104 20.9857 27.1565 20.997 27.1079 21.021L17.8161 25.6264C17.7375 25.6657 17.6715 25.7266 17.6253 25.802C17.5792 25.8775 17.5547 25.9646 17.5548 26.0537V31.0863C17.5548 31.868 17.1686 32.3236 16.3964 32.4531L16.2975 32.4707C15.4875 32.6073 15.0826 32.2659 15.0826 31.4466V16.7795C15.0826 16.6641 15.0237 16.6053 14.906 16.6029ZM15.4252 14.5016C15.4405 14.5093 15.4574 14.5134 15.4746 14.5134C15.4918 14.5134 15.5087 14.5093 15.524 14.5016L27.3622 8.62134C27.38 8.61209 27.3949 8.59815 27.4053 8.58102C27.4157 8.5639 27.4212 8.54425 27.4212 8.52422C27.4212 8.50418 27.4157 8.48453 27.4053 8.46741C27.3949 8.45029 27.38 8.43634 27.3622 8.42709L15.4322 2.34908C15.4169 2.34132 15.4 2.33728 15.3828 2.33728C15.3656 2.33728 15.3487 2.34132 15.3333 2.34908L3.28325 8.37412C3.26455 8.38301 3.24875 8.39701 3.23769 8.41452C3.22663 8.43202 3.22076 8.4523 3.22076 8.47301C3.22076 8.49371 3.22663 8.51399 3.23769 8.5315C3.24875 8.549 3.26455 8.56301 3.28325 8.57189L15.4252 14.5016ZM27.733 18.5595C27.7913 18.531 27.8403 18.4868 27.8747 18.4319C27.909 18.377 27.9272 18.3135 27.9273 18.2487V11.0653C27.9272 11.0066 27.9123 10.9488 27.8838 10.8975C27.8553 10.8462 27.8142 10.8029 27.7644 10.7719C27.7146 10.7408 27.6577 10.7229 27.5991 10.7198C27.5405 10.7168 27.4821 10.7287 27.4293 10.7545L17.3958 15.6917C17.3376 15.7202 17.2885 15.7644 17.2542 15.8193C17.2199 15.8743 17.2016 15.9377 17.2016 16.0025V23.1718C17.2016 23.2305 17.2166 23.2883 17.2451 23.3396C17.2736 23.3909 17.3146 23.4342 17.3644 23.4652C17.4142 23.4963 17.4711 23.5142 17.5297 23.5173C17.5884 23.5203 17.6468 23.5084 17.6996 23.4826L27.733 18.5595Z" fill="white"/>
</svg>
